<svg width="175" height="47" viewBox="0 0 175 47" fill="none" xmlns="http://www.w3.org/2000/svg">
<path d="M13.7965 39V13.5455H17.6371V35.6939H29.1712V39H13.7965ZM33.5524 39V13.5455H49.5112V16.8516H37.3929V24.6072H48.6784V27.9009H37.3929V35.6939H49.6603V39H33.5524ZM56.866 13.5455L63.9506 34.277H64.2364L71.3209 13.5455H75.4722L66.3121 39H61.8749L52.7148 13.5455H56.866ZM79.1481 39V13.5455H95.1069V16.8516H82.9886V24.6072H94.2741V27.9009H82.9886V35.6939H95.256V39H79.1481ZM100.237 39V13.5455H104.078V35.6939H115.612V39H100.237Z" fill="black"/>
<path d="M145.624 13.5455H149.477V30.2873C149.477 32.0688 149.059 33.6473 148.222 35.0227C147.385 36.3899 146.209 37.4671 144.692 38.2543C143.176 39.0331 141.399 39.4226 139.36 39.4226C137.33 39.4226 135.557 39.0331 134.041 38.2543C132.524 37.4671 131.348 36.3899 130.511 35.0227C129.674 33.6473 129.256 32.0688 129.256 30.2873V13.5455H133.096V29.9766C133.096 31.1283 133.349 32.1516 133.854 33.0465C134.368 33.9414 135.093 34.6457 136.029 35.1594C136.966 35.6649 138.076 35.9176 139.36 35.9176C140.653 35.9176 141.767 35.6649 142.704 35.1594C143.648 34.6457 144.369 33.9414 144.866 33.0465C145.372 32.1516 145.624 31.1283 145.624 29.9766V13.5455ZM155.061 39V13.5455H164.134C166.115 13.5455 167.755 13.9059 169.056 14.6268C170.357 15.3477 171.331 16.3337 171.977 17.5849C172.623 18.8278 172.946 20.2281 172.946 21.7859C172.946 23.3519 172.619 24.7605 171.965 26.0117C171.318 27.2546 170.341 28.2406 169.031 28.9698C167.73 29.6907 166.094 30.0511 164.122 30.0511H157.883V26.7947H163.774C165.025 26.7947 166.04 26.5793 166.819 26.1484C167.598 25.7093 168.17 25.1127 168.534 24.3587C168.899 23.6046 169.081 22.747 169.081 21.7859C169.081 20.8247 168.899 19.9712 168.534 19.2255C168.17 18.4798 167.594 17.8956 166.807 17.473C166.028 17.0504 165 16.8391 163.724 16.8391H158.902V39H155.061Z" fill="url(#paint0_linear_6_27)"/>
<path d="M17.1142 0.585785C16.3332 -0.195263 15.0668 -0.195263 14.2858 0.585785L1.55788 13.3137C0.776827 14.0948 0.776827 15.3611 1.55788 16.1421C2.33892 16.9232 3.60525 16.9232 4.3863 16.1421L15.7 4.82843L27.0137 16.1421C27.7948 16.9232 29.0611 16.9232 29.8421 16.1421C30.6232 15.3611 30.6232 14.0948 29.8421 13.3137L17.1142 0.585785ZM17.7 39L17.7 2L13.7 2L13.7 39L17.7 39Z" fill="url(#paint1_linear_6_27)"/>
<defs>
<linearGradient id="paint0_linear_6_27" x1="160" y1="47" x2="160" y2="19.5" gradientUnits="userSpaceOnUse">
<stop offset="0.381667" stop-color="#28D72F"/>
<stop offset="1"/>
</linearGradient>
<linearGradient id="paint1_linear_6_27" x1="16" y1="12.5" x2="16.2" y2="39" gradientUnits="userSpaceOnUse">
<stop stop-color="#28D72F"/>
<stop offset="1"/>
</linearGradient>
</defs>
</svg>
